G04 ================== begin FILE IDENTIFICATION RECORD ==================*
G04 Layout Name:  POSITIVE_VOLTAGE_REGULATOR_SCH.brd*
G04 Film Name:    BOTTOM*
G04 File Format:  Gerber RS274X*
G04 File Origin:  Cadence Allegro 16.6-2015-S059*
G04 Origin Date:  Thu Dec 15 22:54:52 2022*
G04 *
G04 Layer:  ETCH/BOTTOM*
G04 Layer:  PIN/BOTTOM*
G04 Layer:  VIA CLASS/BOTTOM*
G04 *
G04 Offset:    (0.000 0.000)*
G04 Mirror:    No*
G04 Mode:      Positive*
G04 Rotation:  0*
G04 FullContactRelief:  No*
G04 UndefLineWidth:     0.000*
G04 ================== end FILE IDENTIFICATION RECORD ====================*
%FSLAX25Y25*MOIN*%
%IR0*IPPOS*OFA0.00000B0.00000*MIA0B0*SFA1.00000B1.00000*%
%ADD10C,.044*%
%ADD11C,.022*%
%ADD12C,.078744*%
G75*
%LPD*%
G75*
G36*
G01X3887Y3937D02*
Y153543D01*
X153493D01*
Y3937D01*
X3887D01*
G37*
%LPC*%
G75*
G36*
G01X61924Y26050D02*
X74110D01*
G02Y21050I2590J-2500D01*
G01X59853D01*
X49950Y30953D01*
Y50614D01*
X44964Y55600D01*
X42590D01*
G02Y60600I-2590J2500D01*
G01X47036D01*
X54950Y52686D01*
Y33024D01*
X61924Y26050D01*
G37*
G36*
G01X106515Y36051D02*
X124550Y54086D01*
Y93186D01*
X126949Y95585D01*
X126950Y95668D01*
G02X130567Y92050I3600J-17D01*
G01X130485Y92049D01*
X129550Y91114D01*
Y52014D01*
X110051Y32515D01*
X110050Y32432D01*
G02X106432Y36050I-3600J18D01*
G01X106515Y36051D01*
G37*
G36*
G01X103567Y36700D02*
X103485Y36699D01*
X103086Y36300D01*
X80640D01*
G02Y41300I-2591J2500D01*
G01X100088D01*
X100134Y41437D01*
G02X103567Y36700I3416J-1137D01*
G37*
G36*
G01X82265Y61401D02*
X90350Y69486D01*
Y81260D01*
G02Y86440I2500J2590D01*
G01Y92464D01*
X82764Y100050D01*
X51464D01*
X44215Y107299D01*
X44132Y107300D01*
G02X47750Y110918I17J3600D01*
G01X47751Y110835D01*
X53536Y105050D01*
X84836D01*
X95350Y94536D01*
Y86440D01*
G02Y81260I-2500J-2590D01*
G01Y67414D01*
X85801Y57865D01*
X85800Y57782D01*
G02X82182Y61400I-3600J17D01*
G01X82265Y61401D01*
G37*
G36*
G01X102550Y125264D02*
X101965Y125849D01*
X101883Y125850D01*
G02X105500Y129468I18J3600D01*
G01X105501Y129385D01*
X107550Y127336D01*
Y104986D01*
X108135Y104401D01*
X108217Y104400D01*
G02X104600Y100782I-17J-3600D01*
G01X104599Y100865D01*
X102550Y102914D01*
Y125264D01*
G37*
G36*
G01X75246Y92987D02*
X55078D01*
G02Y97987I-2590J2500D01*
G01X75246D01*
G02Y92987I2590J-2500D01*
G37*
G54D12*
X137000Y20000D03*
X20000Y137000D03*
%LPD*%
G75*
G54D10*
X21850Y8700D03*
X22750Y33350D03*
X25250Y79950D03*
X11000Y132650D03*
X35650Y120650D03*
X41400Y8463D03*
X40000Y58100D03*
X52487Y95487D03*
X44150Y110900D03*
X46400Y138700D03*
X76700Y23550D03*
X78050Y38800D03*
X82200Y57800D03*
X77837Y95487D03*
X92850Y83850D03*
X106450Y32450D03*
X103550Y40300D03*
X108200Y100800D03*
X119200Y112500D03*
X101900Y129450D03*
X146300Y20650D03*
X126713Y15863D03*
X130050Y40600D03*
X134700Y72850D03*
X130550Y95650D03*
X136000Y99900D03*
X148542Y122900D03*
G54D11*
G01X40000Y58100D02*
X46000D01*
X52450Y51650D01*
Y31989D01*
X60889Y23550D01*
X76700D01*
G01X52487Y95487D02*
X77837D01*
G01X92850Y83850D02*
Y93500D01*
X83800Y102550D01*
X52500D01*
X44150Y110900D01*
G01X103550Y40300D02*
X102050Y38800D01*
X78050D01*
G01X92850Y83850D02*
Y68450D01*
X82200Y57800D01*
G01X130550Y95650D02*
X127050Y92150D01*
Y53050D01*
X106450Y32450D01*
G01X101900Y129450D02*
X105050Y126300D01*
Y103950D01*
X108200Y100800D01*
M02*
