M48
INCH,TZ
T01C.01574
;LEADER: 12 
;HEADER: 
;CODE  : ASCII 
;FILE  : POSITIVE_VOLTAGE_REGULATOR_SCH-1-2.drl for  ... layers TOP and BOTTOM
;DESIGN: POSITIVE_VOLTAGE_REGULATOR_SCH.brd
;T01 Holesize 1. = 15.740000 Tolerance = +0.000000/-0.000000 PLATED MILS Quantity = 27
%
G90
T01
X126713Y15863
X46400Y138700
X130050Y40600
X21850Y8700
X41400Y8463
X25250Y79950
X22750Y33350
X35650Y120650
X11000Y132650
X134700Y72850
X119200Y112500
X136000Y99900
X146300Y20650
X148542Y122900
X82200Y57800
X44150Y110900
X92850Y83850
X101900Y129450
X108200Y100800
X103550Y40300
X78050Y38800
X52487Y95487
X77837
X40000Y58100
X76700Y23550
X106450Y32450
X130550Y95650
M30
