G04 ================== begin FILE IDENTIFICATION RECORD ==================*
G04 Layout Name:  POSITIVE_VOLTAGE_REGULATOR_SCH.brd*
G04 Film Name:    SMTOP*
G04 File Format:  Gerber RS274X*
G04 File Origin:  Cadence Allegro 16.6-2015-S059*
G04 Origin Date:  Thu Dec 15 22:54:52 2022*
G04 *
G04 Layer:  VIA CLASS/SOLDERMASK_TOP*
G04 Layer:  PIN/SOLDERMASK_TOP*
G04 Layer:  PACKAGE GEOMETRY/SOLDERMASK_TOP*
G04 Layer:  BOARD GEOMETRY/SOLDERMASK_TOP*
G04 *
G04 Offset:    (0.000 0.000)*
G04 Mirror:    No*
G04 Mode:      Positive*
G04 Rotation:  0*
G04 FullContactRelief:  No*
G04 UndefLineWidth:     0.000*
G04 ================== end FILE IDENTIFICATION RECORD ====================*
%FSLAX25Y25*MOIN*%
%IR0*IPPOS*OFA0.00000B0.00000*MIA0B0*SFA1.00000B1.00000*%
%ADD19R,.106X.066*%
%ADD12R,.120079X.07087*%
%ADD22R,.07087X.12598*%
%ADD15R,.046X.06*%
%ADD10R,.06X.046*%
%ADD13C,.052*%
%ADD20C,.047244*%
%ADD18R,.04528X.04724*%
%ADD14R,.04724X.04528*%
%ADD16R,.055118X.055118*%
%ADD23R,.23622X.251969*%
%ADD21R,.082681X.055118*%
%ADD17R,.04528X.064961*%
%ADD11R,.064961X.04528*%
%LPD*%
G75*
G54D10*
X9600Y21850D03*
Y43050D03*
X17700Y38950D03*
Y47150D03*
Y25950D03*
X9600Y30050D03*
X19250Y110400D03*
X11150Y106300D03*
Y114500D03*
X59050Y15500D03*
X59100Y42900D03*
X59050Y23700D03*
X67150Y19600D03*
X94250Y19450D03*
X86150Y15350D03*
X67200Y38800D03*
Y47000D03*
X87550Y44400D03*
X95650Y40300D03*
Y48500D03*
X86150Y23550D03*
G54D11*
X30500Y16337D03*
Y8463D03*
X35650Y103863D03*
Y111737D03*
X64050Y72187D03*
Y64313D03*
X92400Y72187D03*
Y64313D03*
X92100Y140913D03*
Y121163D03*
Y129037D03*
Y148787D03*
X113300Y15863D03*
Y23737D03*
X112200Y140913D03*
Y129487D03*
Y121613D03*
Y148787D03*
G54D20*
X20000Y137000D03*
X137000Y20000D03*
G54D21*
X40078Y47806D03*
G54D12*
X11300Y8700D03*
X38450Y35850D03*
X11150Y125300D03*
X146300Y8550D03*
X143800Y66200D03*
G54D13*
X21850Y8700D03*
X22750Y33350D03*
X25250Y79950D03*
X11000Y132650D03*
X35650Y120650D03*
X41400Y8463D03*
X40000Y58100D03*
X52487Y95487D03*
X44150Y110900D03*
X46400Y138700D03*
X76700Y23550D03*
X78050Y38800D03*
X82200Y57800D03*
X77837Y95487D03*
X92850Y83850D03*
X106450Y32450D03*
X103550Y40300D03*
X108200Y100800D03*
X119200Y112500D03*
X101900Y129450D03*
X146300Y20650D03*
X126713Y15863D03*
X130050Y40600D03*
X134700Y72850D03*
X130550Y95650D03*
X136000Y99900D03*
X148542Y122900D03*
G54D22*
X55250Y110900D03*
X73242D03*
X148542Y111550D03*
X130550D03*
G54D23*
X64226Y139207D03*
X139526Y139857D03*
G54D14*
X9707Y79950D03*
X16793D03*
X147243Y80700D03*
X140157D03*
X147243Y93400D03*
X140157D03*
G54D15*
X13650Y66750D03*
X9550Y58650D03*
X17750D03*
X114000Y51850D03*
X122200D03*
X117300Y40550D03*
X113200Y32450D03*
X121400D03*
X119750Y78200D03*
X118100Y59950D03*
X123850Y86300D03*
X104100Y83850D03*
X108200Y91950D03*
X100000D03*
X127950Y78200D03*
G54D16*
X35550Y70050D03*
X44605D03*
G54D17*
X11113Y95000D03*
X18987D03*
X52487Y84850D03*
X44613D03*
X92113Y109200D03*
X85687Y84750D03*
X77813D03*
X99987Y109200D03*
G54D18*
X11000Y140457D03*
Y147543D03*
G54D19*
X33250Y134700D03*
Y147700D03*
X143700Y49600D03*
Y36600D03*
M02*
